<?xml version="1.0" standalone="no"?>
<!DOCTYPE svg PUBLIC "-//W3C//DTD SVG 20010904//EN"
 "http://www.w3.org/TR/2001/REC-SVG-20010904/DTD/svg10.dtd">
<svg version="1.0" xmlns="http://www.w3.org/2000/svg"
 width="1024.000000pt" height="1024.000000pt" viewBox="0 0 1024.000000 1024.000000"
 preserveAspectRatio="xMidYMid meet">
<metadata>
Created by potrace 1.14, written by Peter Selinger 2001-2017
</metadata>
<g transform="translate(0.000000,1024.000000) scale(0.100000,-0.100000)"
fill="#000000" stroke="none">
<path d="M3985 9220 c-217 -29 -459 -158 -589 -315 -72 -87 -142 -211 -174
-306 -41 -123 -52 -198 -52 -346 l0 -123 -135 0 c-85 0 -165 -6 -213 -16 -280
-57 -521 -244 -647 -499 -71 -144 -87 -214 -92 -407 l-5 -168 -137 0 c-93 0
-164 -6 -226 -19 -350 -72 -620 -336 -712 -697 -17 -65 -18 -203 -18 -2309 l0
-2240 23 -90 c84 -331 339 -587 674 -677 l83 -23 2198 -2 c2415 -4 2304 -6
2478 57 171 62 346 201 448 357 107 162 151 320 151 544 l0 137 168 5 c193 5
263 21 407 92 255 126 442 367 499 647 10 48 16 128 16 213 l0 135 128 0 c219
1 378 45 538 149 204 132 346 330 406 567 l23 89 0 2225 c0 2078 -1 2229 -17
2292 -94 366 -341 614 -710 715 -59 16 -221 18 -2258 19 -1207 1 -2222 -2
-2255 -6z m4475 -321 c115 -32 185 -73 275 -164 92 -92 136 -167 165 -281 20
-76 20 -119 20 -2258 0 -2428 6 -2227 -70 -2383 -71 -144 -213 -263 -375 -313
-49 -15 -109 -23 -202 -27 l-132 -6 -4 1929 c-4 2132 2 1965 -67 2142 -96 248
-310 457 -557 543 -162 56 -21 52 -2117 56 l-1929 4 6 132 c4 93 12 153 27
202 50 162 169 304 313 375 153 74 -47 69 2382 69 2186 1 2191 1 2265 -20z
m-1062 -1101 c102 -37 174 -82 246 -154 72 -72 117 -144 154 -246 l27 -73 0
-2220 0 -2220 -27 -73 c-37 -102 -82 -174 -154 -246 -72 -72 -145 -118 -246
-153 -61 -22 -95 -27 -215 -31 l-143 -5 0 1920 c0 1297 -3 1939 -11 1979 -67
383 -370 686 -753 753 -40 8 -681 11 -1978 11 l-1918 0 0 113 c0 61 7 142 14
178 41 190 173 356 352 441 127 60 -8 57 2384 55 l2195 -2 73 -27z m-1108
-1081 c212 -72 363 -224 427 -432 17 -57 18 -152 18 -2265 0 -1844 -2 -2214
-14 -2260 -45 -181 -171 -337 -335 -414 -124 -59 15 -56 -2376 -56 -2434 0
-2242 -5 -2390 67 -103 50 -213 159 -263 263 -73 149 -68 -47 -65 2416 l3
2219 23 65 c78 217 261 371 484 409 30 5 1013 8 2243 7 2101 -1 2192 -2 2245
-19z"/>
<path d="M3885 6304 c-47 -12 -75 -28 -92 -53 -17 -25 -18 -105 -23 -1587 -5
-1518 -6 -1562 -24 -1583 -35 -39 -129 -24 -272 45 -198 94 -292 249 -345 569
-8 46 -14 310 -18 765 -6 642 -7 698 -24 723 -40 62 -43 62 -367 62 -325 0
-348 -4 -376 -58 -33 -64 -2 -112 116 -180 127 -74 139 -142 140 -772 0 -393
7 -511 36 -653 23 -115 75 -260 125 -348 51 -91 175 -221 264 -279 140 -91
332 -153 556 -179 118 -14 136 -19 159 -41 l25 -25 5 -453 c5 -491 4 -482 63
-517 28 -17 51 -20 175 -20 164 0 201 10 229 62 16 30 18 73 23 484 4 355 8
454 18 467 18 21 62 34 147 42 165 16 357 71 483 141 233 128 381 327 456 614
51 193 57 272 66 800 9 618 8 611 152 687 44 23 78 48 89 67 47 76 5 149 -92
161 -30 3 -169 5 -309 3 -224 -3 -259 -5 -288 -21 -63 -34 -62 -29 -62 -639 0
-732 -13 -924 -72 -1108 -47 -147 -123 -253 -230 -321 -61 -39 -230 -99 -280
-99 -20 0 -44 7 -52 16 -9 8 -17 16 -18 17 -2 1 -5 704 -8 1562 -5 1469 -6
1562 -23 1588 -35 54 -59 61 -201 64 -72 1 -140 0 -151 -3z"/>
</g>
</svg>
